<svg width="54" height="54" viewBox="0 0 54 54" fill="none" xmlns="http://www.w3.org/2000/svg">
<path d="M47.6004 26.9999C47.6004 38.377 38.3775 47.5999 27.0004 47.5999C15.6233 47.5999 6.40039 38.377 6.40039 26.9999C6.40039 15.6228 15.6233 6.3999 27.0004 6.3999C38.3775 6.3999 47.6004 15.6228 47.6004 26.9999ZM26.3528 18.5213C25.2174 17.7644 23.7576 17.6938 22.5545 18.3377C21.3514 18.9816 20.6004 20.2354 20.6004 21.5999V32.3999C20.6004 33.7645 21.3514 35.0182 22.5545 35.6621C23.7576 36.306 25.2174 36.2354 26.3528 35.4785L34.4528 30.0785C35.4821 29.3923 36.1004 28.237 36.1004 26.9999C36.1004 25.7628 35.4821 24.6075 34.4528 23.9213L26.3528 18.5213Z" fill="#1D0633" stroke="#1D0633" stroke-width="2"/>
</svg>
